<?xml version="1.0" encoding="UTF-8"?>
<svg id="Capa_1" data-name="Capa 1" xmlns="http://www.w3.org/2000/svg" viewBox="0 0 628.56 531.16">
  <defs>
    <style>
      .cls-1 {
        fill: #8b71ed;
        opacity: .08;
      }

      .cls-2 {
        fill: #565559;
      }
    </style>
  </defs>
  <path class="cls-1" d="M621.79,270.81c-72.82,257.52-178.67,267.22-352.56,258.33C96.57,520.32,0,442.51,0,270.81S160.26-38.81,310.9,9.91c163.37,52.84,356.41,99.97,310.9,260.9Z"/>
  <path class="cls-2" d="M528.8,156.2c-6.15-.12-11.86,3.2-14.8,8.6,.12-6.15-3.2-11.86-8.6-14.8,6.15,.12,11.86-3.2,14.8-8.6-.12,6.15,3.2,11.86,8.6,14.8h0Z"/>
  <path class="cls-2" d="M352.91,89.01c-2.37-.63-4.8,.78-5.42,3.15s.79,4.8,3.15,5.42,4.8-.78,5.42-3.15-.78-4.8-3.15-5.42Z"/>
  <circle class="cls-2" cx="437.75" cy="164.8" r="4.01" transform="translate(230.98 584.36) rotate(-84.39)"/>
  <path class="cls-2" d="M504.36,306.19c6.69,.13,12.9-3.48,16.1-9.36-.13,6.69,3.48,12.9,9.36,16.1-6.69-.13-12.9,3.48-16.1,9.36,.13-6.69-3.48-12.9-9.36-16.1h0Z"/>
  <circle class="cls-2" cx="272.57" cy="143.92" r="6.57"/>
  <path class="cls-2" d="M447.18,449.72c-1.27,1.28-2.97,2-4.77,2.01l-7.4,.05c1.48,2.74,2.41,5.82,2.43,9.15,.06,10.86-8.71,19.73-19.56,19.81-1.8,0-3.56-.22-5.22-.67-8.34-2.24-14.53-9.84-14.59-18.89-.02-3.33,.87-6.43,2.32-9.19l-134.43,.83c1.48,2.74,2.41,5.82,2.43,9.15,.03,5.26-1.99,10.21-5.68,13.95-3.7,3.74-8.62,5.82-13.88,5.85-1.8,0-3.56-.22-5.26-.67-3.25-.87-6.23-2.57-8.69-5-3.74-3.7-5.82-8.62-5.85-13.88-.02-3.33,.87-6.5,2.4-9.36-3.28-.18-6.7-.58-10.03-1.47-7.67-2.06-14.73-6.59-17.93-16.32l-.23-.96c-3.32-18,6.43-35.65,22.73-42.84l-11.42-50.75-33.51-148.99c-2.73-12.12-12.4-21.27-24.67-23.32l-5.42-.9c-2.17,2.72-5.67,4.26-9.35,3.69l-56.45-8.87c-.35-.05-.7-.13-1.04-.22-4.87-1.31-8.09-6.12-7.29-11.22l.77-4.88c.41-2.64,1.83-4.96,3.98-6.53,2.16-1.57,4.8-2.21,7.44-1.8l56.47,8.87c2.64,.43,4.96,1.84,6.53,4,.81,1.12,1.36,2.38,1.66,3.69l4.92,.82c17.67,2.92,31.71,16.17,35.66,33.7l2.77,12.29,300.78,15.79c2.87,.17,5.39,1.6,6.97,3.96,1.59,2.38,1.94,5.28,.99,7.96l-42.99,121.28c-.08,.23-2.19,6.2-7.7,9.92-4.6,3.1-11.6,5.02-11.89,5.1l-207.72,37.38c-12.91,3.28-21.23,16.11-18.94,29.24,2.35,6.8,8.31,8.04,19.97,7.97l205.82-1.27c1.82,0,3.51,.69,4.8,1.96,1.29,1.28,2,2.97,2.01,4.78,.01,1.81-.69,3.52-1.96,4.8Zm-30.3-175.02l-49.3-1.21-4.12,48.16,44.18-3.52,9.25-43.43Zm-59.96-1.47l-45.09-1.11,1.66,53.51,39.21-3.13,4.22-49.28Zm-101.7-2.5l11.89,58.6,35.76-2.85-1.69-54.62-45.96-1.13Zm22.36,110.17l26.83-4.83-1.21-38.96-33.96,2.71,8.34,41.08Zm37.42-6.73l33.8-6.08,2.98-34.85-37.96,3.03,1.18,37.91Zm44.65-8.03l39.26-7.06,6.41-30.11-42.78,3.41-2.89,33.76Zm101.53-52.29l13.38-37.74-46.85-1.15-9.01,42.28,42.48-3.39Zm-34.03-87.36l-55.3-2.9-3.36,39.28,50.65,1.24,8.01-37.62Zm-65.93-3.46l-50.99-2.68,1.27,41.12,46.33,1.14,3.39-39.58Zm-148.71,46.65l14.14,62.87,29.79-2.38-12.11-59.72-31.82-.78Zm228.17,81.88c4.69-.85,8.6-4.16,10.19-8.66l6.41-18.08-40.9,3.26-6.17,28.96,30.47-5.48Zm50.27-121.72l-53.04-2.78-7.95,37.32,48.33,1.19,12.66-35.72Zm-246.65-12.95l8.75,43.14,47.8,1.17-1.28-41.41-55.27-2.9Zm-10.95-.57l-33.23-1.74,9.99,44.41,32.06,.79-8.81-43.45Zm-4.34,126.71l10.08,44.8,28.03-5.04-8.54-42.11-29.56,2.36Z"/>
  <path class="cls-2" d="M154.88,317.49c-6.15-.12-11.86,3.2-14.8,8.6,.12-6.15-3.2-11.86-8.6-14.8,6.15,.12,11.86-3.2,14.8-8.6-.12,6.15,3.2,11.86,8.6,14.8h0Z"/>
  <circle class="cls-2" cx="86.49" cy="327.78" r="4.01" transform="translate(-248.18 381.84) rotate(-84.39)"/>
  <circle class="cls-2" cx="100.01" cy="220.35" r="6.57"/>
</svg>